<svg xmlns="http://www.w3.org/2000/svg" width="609" height="464" viewBox="0 0 609 464" fill="none">
<path d="M298.268 1.19739C266.401 4.53072 222.801 20.5307 194.935 39.1974C182.001 47.7307 160.801 67.0641 149.868 80.1307C131.068 102.531 115.735 130.531 107.068 158.397C98.9346 184.664 97.6012 194.264 97.6012 226.397C97.6012 257.197 99.8679 275.597 105.201 287.997C108.135 294.931 107.601 297.864 103.601 295.731C102.268 295.064 94.4012 288.797 86.1346 281.731C77.8679 274.797 70.6679 269.064 70.1346 269.064C69.6012 269.064 68.4012 270.397 67.3346 272.131C63.3346 277.997 66.8012 281.997 92.9346 301.731C102.801 309.197 112.268 316.797 113.868 318.531C117.468 322.531 134.401 350.664 134.001 351.864C133.335 353.464 106.668 342.797 88.9346 333.997C69.7346 324.397 29.7346 300.931 20.4012 293.731C13.6012 288.531 9.4679 288.131 7.0679 292.131C5.8679 294.264 6.6679 295.597 12.6679 300.931C29.4679 316.264 93.6012 350.531 130.001 363.731C143.335 368.664 152.535 374.531 159.201 382.264C160.935 384.131 162.268 386.531 162.268 387.331C162.268 389.331 155.201 389.597 151.868 387.864C150.535 387.197 138.801 384.797 125.601 382.531C112.401 380.264 97.6012 377.597 92.6679 376.797C85.6012 375.464 83.4679 375.597 81.7346 376.931C78.2679 379.864 79.2012 383.197 84.0012 385.597C89.6012 388.131 118.001 393.197 148.935 397.064C161.735 398.664 174.801 400.531 177.735 401.331C183.868 402.797 192.935 409.464 191.201 411.197C189.601 412.931 156.935 406.531 149.068 402.931C142.401 399.997 141.601 399.864 138.668 401.731C137.068 402.931 135.601 404.931 135.601 406.397C135.601 409.464 144.801 413.197 160.935 416.397C167.201 417.597 178.535 420.131 186.268 421.864C194.001 423.731 204.801 425.731 210.268 426.397C216.001 427.064 224.535 429.331 230.268 431.731C259.201 443.597 287.601 450.264 312.268 450.797C331.601 451.064 351.601 450.131 352.401 448.797C352.801 448.264 354.535 447.731 356.401 447.731C368.801 447.731 406.268 436.131 425.601 426.397C439.335 419.331 445.068 417.864 471.201 414.397C477.868 413.464 484.801 413.064 486.535 413.464C488.268 413.997 496.801 419.997 505.468 427.064C518.935 437.731 522.135 439.731 526.135 439.731C528.801 439.731 542.001 440.131 555.601 440.531C569.201 440.931 586.535 440.797 594.268 440.397L608.268 439.464L603.601 435.464C601.068 433.331 592.268 426.931 584.135 421.197C564.935 407.464 552.401 397.064 553.868 395.731C554.401 395.197 563.068 393.064 572.935 391.197C595.335 386.797 600.268 385.331 603.068 382.264C608.801 375.864 599.068 373.731 582.001 377.597C577.335 378.664 566.001 380.797 556.668 382.397C536.535 385.864 537.735 386.131 517.335 370.931L503.868 360.797L508.001 353.997C515.735 341.731 517.335 340.797 544.668 331.864C571.735 322.931 575.601 321.064 575.601 316.931C575.601 312.131 570.268 311.197 561.468 314.397C549.868 318.664 535.468 323.331 530.668 324.397C527.201 325.064 526.268 324.797 526.268 323.331C526.268 320.664 533.735 311.731 540.668 306.264C550.668 298.397 584.268 263.064 590.135 254.397C595.201 246.797 595.468 245.731 593.868 243.197C592.801 241.597 591.068 240.264 590.001 239.997C588.801 239.731 583.335 245.064 576.801 252.664C563.868 267.997 541.868 290.397 539.868 290.397C539.068 290.397 539.868 285.464 541.735 277.997C545.735 261.997 547.601 246.531 547.601 228.931C547.601 211.864 545.468 188.397 542.935 178.397C541.868 174.397 540.801 169.597 540.401 167.731C538.668 157.997 527.735 130.531 520.668 117.731C503.601 86.7974 472.135 52.7974 445.601 36.6641C427.335 25.5974 416.001 19.9974 398.935 13.9974C364.668 1.73071 332.801 -2.26928 298.268 1.19739ZM363.601 15.0641C397.068 21.3307 433.335 39.4641 464.401 65.3307C484.135 81.7307 500.268 103.464 515.068 133.731C527.868 159.997 530.135 167.731 535.735 206.664C539.335 231.997 532.401 281.997 522.535 302.397C518.935 309.864 491.601 329.731 486.268 328.797C485.201 328.531 481.201 322.664 477.468 315.731C464.668 291.731 442.668 261.464 425.468 244.531C412.001 231.197 386.668 211.864 373.468 204.931C369.201 202.664 365.335 200.531 364.935 199.997C364.135 198.931 357.601 196.397 330.935 187.064C317.735 182.397 310.801 179.331 310.535 177.997C310.268 176.797 312.135 173.597 314.668 170.931C320.401 164.531 326.935 162.797 350.801 161.064C361.068 160.397 369.601 159.464 370.001 159.064C371.601 157.464 366.135 153.997 348.135 144.931C332.135 137.064 327.868 134.264 323.868 129.197C314.001 117.064 301.468 105.731 294.268 102.131C270.535 90.7974 246.801 91.864 222.268 105.731C202.401 116.931 189.068 137.064 182.001 166.264C178.801 179.464 177.335 206.264 179.468 211.597C180.268 213.464 181.868 220.397 182.935 227.064C185.868 244.397 193.468 265.864 200.935 278.264C216.001 303.464 225.601 313.597 248.935 329.064C255.868 333.597 262.535 338.131 263.601 339.064C264.668 339.997 273.735 345.064 283.601 350.264C300.668 359.197 301.335 359.731 296.268 359.731C288.135 359.731 254.935 355.997 242.801 353.731C225.601 350.531 184.135 338.797 170.935 333.464C157.335 327.997 132.135 315.197 128.401 311.864C117.868 302.531 108.935 263.064 108.935 225.597C108.935 189.464 113.468 167.197 126.801 138.397C139.335 111.064 150.001 95.7307 170.268 75.5974C206.001 40.1307 252.268 17.0641 295.601 13.0641C312.801 11.4641 350.668 12.5307 363.601 15.0641ZM284.268 109.597C294.935 114.397 301.201 119.731 310.535 131.997C317.201 140.797 319.868 143.197 325.735 145.864C338.268 151.331 336.001 152.797 308.268 157.731C301.735 158.931 290.401 162.264 283.335 165.064C232.935 184.797 211.868 210.131 209.068 255.064L208.135 268.397L205.068 261.731C203.468 257.997 199.735 246.931 196.801 237.064C191.601 219.464 191.601 218.797 191.468 196.397C191.335 174.531 191.468 173.331 195.468 161.064C197.735 154.131 201.735 144.797 204.268 140.397C210.001 130.797 222.135 118.131 230.001 113.464C245.068 104.531 269.468 102.797 284.268 109.597ZM298.801 174.664C298.401 176.397 297.068 179.331 296.135 181.331C293.868 185.731 290.268 205.997 290.268 214.264C290.268 230.531 297.068 252.931 306.268 266.664C329.468 301.997 373.335 325.064 441.335 337.731C452.268 339.864 460.535 341.997 459.868 342.664C458.268 344.264 414.268 353.997 401.068 355.597C394.801 356.397 379.868 357.464 367.735 357.864C350.001 358.531 343.335 358.264 333.868 356.531C302.668 350.664 271.335 333.731 245.601 308.931C226.001 289.997 220.935 278.797 220.935 254.664C220.935 236.664 226.135 221.597 237.468 207.197C246.535 195.864 268.935 181.731 289.335 174.397C298.801 171.064 300.001 171.064 298.801 174.664ZM316.935 193.864C366.801 205.464 416.535 242.931 451.335 295.064C466.268 317.331 471.468 327.064 469.335 329.197C464.401 334.131 387.335 315.064 363.735 303.064C346.135 294.264 322.268 272.131 314.001 257.064C305.068 240.931 301.201 219.997 303.201 199.331C304.135 190.664 303.868 190.797 316.935 193.864ZM149.601 336.264C174.535 348.131 227.601 363.064 256.935 366.397C262.401 367.064 270.801 368.264 275.601 369.064C286.135 370.931 363.335 369.864 381.601 367.597C397.201 365.731 403.468 365.731 405.201 367.464C407.201 369.464 403.735 370.664 373.601 378.397C334.935 388.264 325.601 389.597 295.601 389.597L269.601 389.731L237.601 382.664C198.135 373.997 187.868 371.331 171.201 366.131C159.468 362.397 157.601 361.464 152.135 355.331C144.668 346.931 134.135 328.797 138.001 330.664C138.535 330.931 143.735 333.464 149.601 336.264ZM496.935 349.197C496.935 351.197 496.268 351.864 494.001 351.464C490.401 350.931 489.335 348.131 492.535 347.331C496.668 346.264 496.935 346.397 496.935 349.197ZM480.268 357.331C483.601 359.597 486.268 361.997 486.268 362.664C486.268 364.264 477.068 374.131 472.668 377.197L468.935 379.997L460.935 373.064C456.535 369.197 452.935 365.331 452.935 364.397C452.935 362.264 468.401 353.064 471.868 353.064C473.201 353.064 476.935 354.931 480.268 357.331ZM442.268 372.531C447.735 376.264 459.601 388.131 459.601 389.997C459.601 392.797 454.935 393.864 437.335 395.597C419.468 397.197 362.268 397.331 356.935 395.731L353.601 394.797L357.201 393.331C359.201 392.531 365.468 390.931 371.201 389.864C382.401 387.731 400.135 382.397 409.735 378.264C413.068 376.931 417.068 375.464 418.668 375.197C420.268 374.797 424.001 373.597 426.935 372.531C434.001 369.864 438.268 369.864 442.268 372.531ZM512.268 381.731C516.001 384.797 518.535 387.864 518.135 388.397C516.668 389.864 490.668 392.131 485.601 391.197C482.935 390.664 480.935 389.464 480.935 388.397C480.935 387.331 484.268 382.931 488.401 378.531L495.868 370.397L500.801 373.064C503.468 374.664 508.668 378.531 512.268 381.731ZM192.535 383.064C209.468 386.797 214.268 388.397 214.268 390.264C214.268 395.197 187.735 393.331 181.601 387.864C180.135 386.664 177.468 383.864 175.601 381.864C172.668 378.397 172.535 378.131 174.935 378.797C176.401 379.331 184.268 381.197 192.535 383.064ZM553.068 411.864C562.935 419.331 571.201 425.731 571.468 425.864C574.268 428.264 556.001 429.731 537.735 428.397L523.468 427.464L515.735 421.064C507.335 414.131 503.601 407.597 505.868 403.864C507.601 401.064 517.068 398.664 527.068 398.531L535.068 398.397L553.068 411.864ZM304.268 405.064C318.268 405.731 347.601 406.664 369.601 407.064C411.068 407.864 418.801 408.397 417.601 410.397C414.668 415.064 275.868 420.531 240.535 417.331C224.935 415.864 215.335 412.931 210.001 408.131C208.135 406.397 207.868 405.731 209.201 404.797C211.468 403.464 272.801 403.597 304.268 405.064ZM396.935 426.397C396.935 431.464 325.868 442.931 308.535 440.664C291.735 438.397 269.468 434.131 268.268 432.931C265.201 429.864 272.535 429.064 305.601 428.931C324.668 428.931 349.601 427.997 360.935 427.064C387.468 424.931 396.935 424.797 396.935 426.397Z" fill="#15803d"/>
<path d="M256.401 130.531C254.535 132.797 252.935 135.464 252.935 136.531C252.935 140.264 259.201 145.064 264.001 145.064C273.601 145.064 276.001 135.064 267.735 129.464C261.868 125.464 260.535 125.597 256.401 130.531Z" fill="#15803d"/>
<path d="M20.5346 225.197C16.9346 227.331 12.5346 237.064 11.4679 245.064C10.2679 254.797 12.4012 267.197 16.2679 273.731C22.9346 284.931 38.8012 297.731 45.2012 296.797C47.0679 296.531 49.6012 293.997 52.2679 289.864C56.1346 283.464 56.2679 282.797 56.1346 267.864C56.0012 254.264 55.6012 251.731 52.8012 246.797C47.4679 237.464 40.1346 229.597 33.7346 226.531C27.0679 223.464 24.1346 223.064 20.5346 225.197ZM34.5346 241.997C37.2012 244.797 40.6679 249.731 42.1346 253.064C46.5346 262.931 45.4679 282.397 40.5346 282.397C39.4679 282.397 36.9346 280.797 34.9346 278.664C25.0679 268.931 21.0679 256.797 23.6012 244.397C25.4679 235.464 27.7346 234.931 34.5346 241.997Z" fill="#15803d"/>
<path d="M30.6679 338.397C15.8679 341.464 2.40123 354.664 0.267896 368.397C-1.06544 376.264 2.40123 378.931 14.6679 379.464C22.1346 379.864 26.0012 379.331 31.8679 377.064C45.0679 372.131 56.9346 357.197 56.9346 345.464C56.9346 343.064 55.7346 341.731 52.6679 340.531C46.5346 337.997 37.2012 337.197 30.6679 338.397ZM41.4679 348.531C45.2012 349.997 43.8679 353.864 37.7346 359.464C27.8679 368.531 19.3346 371.464 15.6012 367.064C9.60123 359.864 31.0679 344.531 41.4679 348.531Z" fill="#15803d"/>
<path d="M463.201 420.264C462.801 421.331 460.135 422.664 457.335 423.197C454.535 423.731 451.468 424.664 450.668 425.464C443.868 430.664 457.601 453.997 470.801 459.731C482.401 464.797 496.668 464.264 503.601 458.664C506.535 456.264 506.535 456.131 504.401 449.997C499.735 435.997 492.401 428.797 476.668 422.397C465.601 417.864 464.135 417.597 463.201 420.264ZM480.535 436.531C486.935 440.264 491.601 445.597 491.601 449.464C491.601 451.864 490.935 451.997 484.401 451.464C475.868 450.797 469.201 446.797 464.001 439.331C461.068 435.064 460.801 433.997 462.401 432.931C465.201 431.064 474.135 432.797 480.535 436.531Z" fill="#15803d"/>
</svg>